<?xml version="1.0" encoding="iso-8859-1"?>
<!-- Generator: Adobe Illustrator 19.0.0, SVG Export Plug-In . SVG Version: 6.00 Build 0)  -->
<svg version="1.1" id="Layer_1" xmlns="http://www.w3.org/2000/svg" xmlns:xlink="http://www.w3.org/1999/xlink" x="0px" y="0px"
	 viewBox="0 0 469.333 469.333" style="enable-background:new 0 0 469.333 469.333;" xml:space="preserve">
<g>
	<g>
		<g>
			<path d="M466.208,88.458L380.875,3.125c-2-2-4.708-3.125-7.542-3.125H42.667C19.146,0,0,19.135,0,42.667v384
				c0,23.531,19.146,42.667,42.667,42.667h384c23.521,0,42.667-19.135,42.667-42.667V96
				C469.333,93.167,468.208,90.458,466.208,88.458z M106.667,21.333h234.667v128c0,11.76-9.563,21.333-21.333,21.333H128
				c-11.771,0-21.333-9.573-21.333-21.333V21.333z M384,448H85.333V256H384V448z M448,426.667c0,11.76-9.563,21.333-21.333,21.333
				h-21.333V245.333c0-5.896-4.771-10.667-10.667-10.667h-320c-5.896,0-10.667,4.771-10.667,10.667V448H42.667
				c-11.771,0-21.333-9.573-21.333-21.333v-384c0-11.76,9.563-21.333,21.333-21.333h42.667v128C85.333,172.865,104.479,192,128,192
				h192c23.521,0,42.667-19.135,42.667-42.667v-128h6.25L448,100.417V426.667z"/>
			<path d="M266.667,149.333h42.667c5.896,0,10.667-4.771,10.667-10.667V53.333c0-5.896-4.771-10.667-10.667-10.667h-42.667
				c-5.896,0-10.667,4.771-10.667,10.667v85.333C256,144.562,260.771,149.333,266.667,149.333z M277.333,64h21.333v64h-21.333V64z"
				/>
		</g>
	</g>
</g>
<g>
</g>
<g>
</g>
<g>
</g>
<g>
</g>
<g>
</g>
<g>
</g>
<g>
</g>
<g>
</g>
<g>
</g>
<g>
</g>
<g>
</g>
<g>
</g>
<g>
</g>
<g>
</g>
<g>
</g>
</svg>
