<svg xmlns="http://www.w3.org/2000/svg" xmlns:xlink="http://www.w3.org/1999/xlink" version="1.1" x="0px" y="0px" viewBox="0 0 66 82.5" enable-background="new 0 0 66 66" xml:space="preserve"><g><path d="M19.8,31L19.8,31c2.1,0,3.7,1.6,3.7,3.7v0.9c0,2.5,2.1,4.6,4.6,4.6H38c2.5,0,4.6-2.1,4.6-4.6v-0.9c0-2,1.6-3.7,3.7-3.7   s3.7-1.6,3.7-3.7v-9.5C49.9,13.2,48,9,45,6C34.2-4.8,16.1,3.1,16.1,18.7v8.7C16.1,29.4,17.7,31,19.8,31z M36.2,16.4   c0.9-2.3,4.9-2.3,7.2-1.4c2.3,0.9,3.3,3.6,2.4,5.8c-0.9,2.3-3.6,3.4-5.8,2.4C37.7,22.3,35.3,18.7,36.2,16.4z M32.3,23.9   c0.4-0.4,1-0.4,1.4,0c1.1,1,3,2.9,3.1,4.7c0,0.5-0.3,1-0.8,1.1c-2,0.5-4,0.5-6,0c-0.5-0.1-0.9-0.6-0.8-1.1   C29.2,26.8,31.2,24.8,32.3,23.9z M22.6,15c2.3-0.9,6.2-0.9,7.2,1.4c0.9,2.3-1.5,5.9-3.7,6.9s-4.9-0.1-5.8-2.4   C19.3,18.6,20.3,16,22.6,15z"/><path d="M46.3,39.8l-10.7,4.3l9,3.6l2.8-1.1c1.9-0.8,4.2-0.7,6,0.4c3.1,1.9,7-0.6,6.6-4.2c-0.2-1.8-1.4-3.2-3-3.7   c0.6-1.1,0.7-2.4,0.2-3.6c-1.7-4.2-7.7-3.4-8.4,1C48.6,37.9,47.8,39.3,46.3,39.8z"/><path d="M17.2,51.6c-1.4,0.6-3,0.2-4.2-0.7c-3.5-2.7-8.4,1-6.7,5.1c0.5,1.2,1.5,2.1,2.7,2.5c-0.7,1.4-0.7,3.3,0.4,4.7   c2.1,2.7,6.4,2,7.6-1.2c0.8-2.2,2.3-4,4.5-4.9l8.9-3.6l-9-3.6L17.2,51.6z"/><path d="M53,51c-1.2,0.9-2.8,1.3-4.2,0.7L19.7,39.8c-1.4-0.6-2.3-1.9-2.5-3.4c-0.7-4.4-6.7-5.1-8.4-1c-0.5,1.2-0.4,2.5,0.2,3.6   c-1.5,0.5-2.8,1.9-3,3.7c-0.4,3.5,3.5,6.1,6.6,4.2c1.8-1.1,4-1.2,6-0.4l26,10.5c2.2,0.9,3.7,2.7,4.5,4.9c1.2,3.3,5.5,4,7.6,1.2   c1.1-1.5,1.2-3.3,0.4-4.7c1.2-0.4,2.2-1.3,2.7-2.5C61.4,52,56.5,48.3,53,51z"/></g></svg>