<svg xmlns:svg="http://www.w3.org/2000/svg" xmlns:sodipodi="http://sodipodi.sourceforge.net/DTD/sodipodi-0.dtd" xmlns:cc="http://creativecommons.org/ns#" xmlns:rdf="http://www.w3.org/1999/02/22-rdf-syntax-ns#" xmlns:dc="http://purl.org/dc/elements/1.1/" xmlns:inkscape="http://www.inkscape.org/namespaces/inkscape" xmlns="http://www.w3.org/2000/svg" xmlns:xlink="http://www.w3.org/1999/xlink" version="1.1" x="0px" y="0px" viewBox="0 0 800 1000" enable-background="new 0 0 800 800" xml:space="preserve"><g><path d="M773.889,698.795L417.323,81.203c-3.573-6.188-10.176-10-17.321-10s-13.748,3.812-17.321,10L26.115,698.795   c-5.523,9.564-2.246,21.797,7.32,27.32c3.149,1.818,6.588,2.682,9.981,2.682c6.911,0,13.635-3.586,17.339-10.002l339.246-587.592   l321.925,557.592H187.85c-11.046,0-20,8.953-20,20c0,11.045,8.954,20,20,20h568.719c7.146,0,13.748-3.813,17.32-10   C777.462,712.605,777.462,704.982,773.889,698.795z"/><path d="M133.22,688.795h-14.455c-11.046,0-20,8.953-20,20c0,11.045,8.954,20,20,20h14.455c11.047,0,20-8.955,20-20   C153.22,697.748,144.267,688.795,133.22,688.795z"/><path d="M183.329,648.027h295.178c11.045,0,20-8.955,20-20c0-11.047-8.955-20-20-20H217.97l182.032-315.29l199.353,345.29   c3.705,6.416,10.427,10.004,17.339,10.002c3.393,0,6.832-0.863,9.981-2.682c9.566-5.523,12.844-17.756,7.32-27.32l-216.673-375.29   c-3.572-6.188-10.175-10-17.32-10s-13.748,3.812-17.32,10l-216.673,375.29c-3.572,6.188-3.572,13.811,0,20   C169.581,644.215,176.185,648.027,183.329,648.027z"/><path d="M533.134,608.027c-11.046,0-20,8.953-20,20c0,11.045,8.954,20,20,20h14.456c11.046,0,20-8.955,20-20   c0-11.047-8.954-20-20-20H533.134z"/><path d="M400.002,535.375c11.046,0,20-8.955,20-20V383.089c0-11.046-8.954-20-20-20s-20,8.954-20,20v132.286   C380.002,526.42,388.956,535.375,400.002,535.375z"/><path d="M400.005,593.576c5.26,0,10.42-2.129,14.14-5.85c3.72-3.73,5.86-8.881,5.86-14.15c0-5.26-2.141-10.41-5.86-14.139   c-3.72-3.721-8.88-5.861-14.14-5.861c-5.271,0-10.42,2.141-14.15,5.861c-3.72,3.729-5.85,8.879-5.85,14.139   c0,5.27,2.13,10.42,5.85,14.15C389.585,591.447,394.734,593.576,400.005,593.576z"/></g></svg>