<!-- Generated by IcoMoon.io -->
<svg
	version="1.1"
	xmlns="http://www.w3.org/2000/svg"
	width="816"
	height="1024"
	viewBox="0 0 816 1024"
>
<title />
<g id="icomoon-ignore">
</g>
<path
		fill="#000"
		d="M796.060 171.516c-219.063 0-373.033-163.984-375.537-165.236-3.757-3.757-7.509-6.26-12.519-6.26s-10.014 2.503-12.519 6.26c-2.503 1.252-155.221 165.236-375.537 165.236-10.014 0-17.525 7.509-17.525 17.525 0 310.444 107.653 519.492 197.781 640.914 97.64 131.438 195.279 189.019 199.034 191.524 2.503 1.252 6.26 2.503 8.763 2.503s6.26-1.252 8.763-2.503c3.757-2.503 101.394-60.087 199.034-191.524 90.128-121.423 197.781-330.474 197.781-640.914 0-10.014-8.763-17.525-17.525-17.525zM588.262 807.423c-76.359 103.896-153.97 160.23-180.259 177.753-25.034-17.525-102.647-72.602-179.006-176.502-85.122-115.162-186.515-311.694-190.272-602.11 190.272-7.509 327.967-123.925 369.278-163.984 41.308 40.057 179.006 156.474 369.278 162.733-3.757 290.417-103.896 486.944-189.019 602.11zM286.584 322.98v63.842h-11.266c-38.805 0-70.099 31.295-70.099 70.099v250.357c0 38.805 31.295 70.099 70.099 70.099h264.127c38.805 0 70.099-31.295 70.099-70.099v-250.357c0-38.805-31.295-70.099-70.099-70.099h-217.81v-65.093c0-47.567 38.805-86.374 86.374-86.374s86.374 38.805 86.374 86.374v73.856c0 10.014 7.509 17.525 17.525 17.525s17.525-7.509 17.525-17.525v-73.856c0-67.596-55.080-121.423-121.423-121.423s-121.423 55.080-121.423 122.676zM575.747 458.174v250.357c0 20.029-16.272 35.051-35.051 35.051h-265.38c-20.029 0-35.051-16.272-35.051-35.051v-250.357c0-20.029 16.272-35.051 35.051-35.051h264.127c20.029 0 36.3 15.023 36.3 35.051zM374.209 644.691c-7.509-5.006-10.014-15.023-7.509-23.785l16.272-51.323c-6.26-6.26-8.763-13.769-8.763-23.785 0-18.775 15.023-33.798 33.798-33.798s33.798 15.023 33.798 33.798c0 8.763-3.757 17.525-8.763 23.785l16.272 51.323c2.503 8.763 0 18.775-7.509 23.785-7.509 6.26-20.029 10.014-33.798 10.014s-25.034-3.757-33.798-10.014z"
	/>
</svg>
