<svg xmlns="http://www.w3.org/2000/svg" xmlns:xlink="http://www.w3.org/1999/xlink" width="1200" height="1200" viewBox="0 0 1200 1200"><rect width="100%" height="100%" fill="#FFFFFF"></rect><g transform="translate(600 600) scale(0.69 0.69) rotate(0) translate(-600 -600)" style="fill:#000000"><svg fill="#000000" xmlns:dc="http://purl.org/dc/elements/1.1/" xmlns:cc="http://creativecommons.org/ns#" xmlns:rdf="http://www.w3.org/1999/02/22-rdf-syntax-ns#" xmlns:svg="http://www.w3.org/2000/svg" xmlns="http://www.w3.org/2000/svg" xmlns:sodipodi="http://sodipodi.sourceforge.net/DTD/sodipodi-0.dtd" xmlns:inkscape="http://www.inkscape.org/namespaces/inkscape" version="1.1" x="0px" y="0px" viewBox="0 0 100 100"><g transform="translate(0,-952.36218)"><path d="m 54.830399,963.84657 c 1.23149,0.2362 2.41183,0.5016 3.53125,0.8124 5.30683,7.8979 6.35903,18.1837 6.4375,28.875 -7.25582,-0.032 -15.17992,-0.5303 -24.75,-1.6562 -1.23512,-0.024 -2.19078,1.0351 -2.21875,2 l 0,11.00003 c 0.0137,0.9963 0.88051,1.9065 1.875,1.9688 9.55746,0.6027 17.85701,1.3552 27.09375,1.9062 -0.16768,10.3248 -1.47772,21.1396 2.96875,32.125 -4.82392,0 -24.07517,-6.7506 -35.9375,-10.3125 0.0158,-10.7139 0.79822,-17.1965 -0.40625,-23.2187 -1.17883,-5.8942 -4.4116,-10.98653 -11.53125,-18.21883 -0.0922,-0.8292 -0.0459,-1.7546 0,-2.5 4.61661,-4.51111 9.30955,-7.9954 13.5625,-9.8438 5.44685,-0.5237 10.31599,-1.4866 13.96875,-3.875 2.99732,-1.9597 4.99828,-5.0722 5.40625,-9.0624 z m -4.125,0.8437 c -0.43029,2.2059 -1.59615,3.6506 -3.46875,4.875 -2.74348,1.7938 -7.2298,2.8249 -12.59375,3.3125 -0.22321,0.017 -0.39039,0.065 -0.59375,0.156 -3.16749,1.351 -6.34926,3.3594 -9.5,5.875 3.81858,-6.6655 11.86051,-13.3876 25.375,-14.0312 0.28869,0.01 0.5547,-0.1286 0.78125,-0.1873 z m 18,4.9375 c 1.86455,1.4492 3.43346,3.1239 4.75,5 3.35011,4.7739 5.15364,10.994 5.90625,18.3438 -2.16744,0.167 -4.3549,0.2824 -6.5625,0.375 -0.07,-8.612 -0.75171,-16.4898 -4.09375,-23.7188 z m -46.4375,25.75 c 4.4815,5.03763 6.39298,8.62123 7.21875,12.75003 0.98416,4.9208 0.40109,11.0972 0.34375,21.25 l -9.65625,-2.9062 c 0.31884,-0.9756 0.87326,-1.9982 2.0625,-3.1876 0.3368,-0.3293 0.55131,-0.7809 0.59375,-1.25 0.56481,-9.4213 0.0434,-18.0168 -0.5625,-26.65623 z m 19.5625,0.6875 c 15.28964,1.6779 26.7135,1.73 37.84375,0.875 0.35823,2.8407 0.10422,4.57983 -1,7.15633 -3.23701,0.3498 -4.91062,1.0312 -8.84375,0.7812 -9.53309,-0.4681 -18.56416,-1.2265 -28,-1.875 z m 35.0625,12.25003 c -0.15169,8.2851 -0.0625,16.7266 -0.0625,25.0625 -0.76825,1.2318 -1.49664,2.5594 -2.15625,3.8438 -3.04758,-9.2536 -2.01106,-18.6494 -1.875,-28.5 1.32248,-0.11 2.71786,-0.2438 4.09375,-0.4063 z" style="text-indent:0;text-transform:none;direction:ltr;block-progression:tb;baseline-shift:baseline;color:#000000;enable-background:accumulate;" fill="#000000" fill-opacity="1" stroke="none" marker="none" visibility="visible" display="inline" overflow="visible"></path></g></svg></g></svg>